<?xml version="1.0" encoding="UTF-8" standalone="no"?>
<!-- Created with Inkscape (http://www.inkscape.org/) -->

<svg
   width="53.792397mm"
   height="53.792393mm"
   viewBox="0 0 53.792397 53.792393"
   version="1.1"
   id="svg1"
   xmlns="http://www.w3.org/2000/svg"
   xmlns:svg="http://www.w3.org/2000/svg">
  <defs
     id="defs1" />
  <g
     id="layer1"
     transform="translate(-37.665845,-58.018378)">
    <circle
       style="color:#000000;overflow:visible;fill:#ffffff;fill-rule:evenodd;stroke:#000000;stroke-width:1.065"
       id="path1"
       cx="64.562042"
       cy="84.914574"
       r="26.363697" />
    <g
       id="text1"
       style="font-size:73.3333px;line-height:125%;font-family:'PT Sans Caption';-inkscape-font-specification:'PT Sans Caption';letter-spacing:0px;word-spacing:0px;white-space:pre;stroke-width:0.775318px"
       transform="matrix(0.34125763,0,0,0.34125763,-15.017978,-23.774283)"
       aria-label="O21">
      <path
         style="font-family:'Russo One';-inkscape-font-specification:'Russo One'"
         d="m 208.07967,306.76169 q 0,-4.39999 -4.4,-4.39999 h -12.46666 q -4.4,0 -4.4,4.39999 v 23.46666 q 0,4.4 4.4,4.4 h 12.46666 q 4.4,0 4.4,-4.4 z m 13.19999,23.46666 q 0,7.7 -3.52,11.21999 -3.44666,3.44667 -11.14666,3.44667 h -18.33332 q -7.7,0 -11.22,-3.44667 -3.44666,-3.51999 -3.44666,-11.21999 v -23.46666 q 0,-7.69999 3.44666,-11.14666 3.52,-3.51999 11.22,-3.51999 H 206.613 q 7.7,0 11.14666,3.51999 3.52,3.44667 3.52,11.14666 z"
         id="path2" />
      <path
         style="fill:#ff0000"
         d="m 262.34628,344.16168 h -34.61332 v -5.35333 l 13.71333,-13.86 q 3.96,-3.96 6.67333,-7.03999 2.71333,-3.08 4.10666,-6.01333 1.39334,-3.00667 1.39334,-6.52667 0,-4.32666 -2.56667,-6.52666 -2.56667,-2.27333 -6.67333,-2.27333 -3.81333,0 -6.74666,1.32 -2.86,1.32 -5.86667,3.66666 l -3.44666,-4.32666 q 3.08,-2.56667 7.03999,-4.32667 4.03334,-1.83333 9.02,-1.83333 7.33333,0 11.58666,3.74 4.25333,3.66666 4.25333,10.19333 0,4.10666 -1.68666,7.69999 -1.68667,3.59333 -4.69333,7.11333 -3.00667,3.44667 -7.04,7.40666 l -10.92666,10.78 v 0.29333 h 26.47332 z m 29.84669,0 h -6.30667 v -36.59332 q 0,-3.15333 0.0733,-5.06 0.0733,-1.90666 0.22,-3.95999 -1.17334,1.17333 -2.12667,1.97999 -0.95333,0.80667 -2.42,2.05334 l -5.57333,4.54666 -3.37333,-4.32666 14.15333,-11 h 5.35333 z"
         id="path3" />
    </g>
  </g>
</svg>
